<mxfile host="app.diagrams.net" modified="2024-04-24T06:22:43.261Z" agent="Mozilla/5.0 (Macintosh; Intel Mac OS X 10_15_7) AppleWebKit/537.36 (KHTML, like Gecko) Chrome/123.0.0.0 Safari/537.36" etag="Fw-c9nStMmEogN0oZTXg" version="24.2.5" type="github">
  <diagram id="C5RBs43oDa-KdzZeNtuy" name="Page-1">
    <mxGraphModel dx="911" dy="645" grid="1" gridSize="10" guides="1" tooltips="1" connect="1" arrows="1" fold="1" page="1" pageScale="1" pageWidth="827" pageHeight="1169" math="0" shadow="0">
      <root>
        <mxCell id="WIyWlLk6GJQsqaUBKTNV-0" />
        <mxCell id="WIyWlLk6GJQsqaUBKTNV-1" parent="WIyWlLk6GJQsqaUBKTNV-0" />
        <mxCell id="AlxX1pEJ-k5DPn2Wh6GJ-0" value="&lt;font style=&quot;font-size: 15px;&quot;&gt;Pubhub UI Core&lt;/font&gt;" style="rounded=1;whiteSpace=wrap;html=1;" vertex="1" parent="WIyWlLk6GJQsqaUBKTNV-1">
          <mxGeometry x="35" y="180" width="520" height="410" as="geometry" />
        </mxCell>
        <mxCell id="AlxX1pEJ-k5DPn2Wh6GJ-23" style="edgeStyle=orthogonalEdgeStyle;rounded=0;orthogonalLoop=1;jettySize=auto;html=1;exitX=0;exitY=0.5;exitDx=0;exitDy=0;dashed=1;" edge="1" parent="WIyWlLk6GJQsqaUBKTNV-1" source="AlxX1pEJ-k5DPn2Wh6GJ-1" target="AlxX1pEJ-k5DPn2Wh6GJ-0">
          <mxGeometry relative="1" as="geometry">
            <Array as="points">
              <mxPoint x="593" y="255" />
              <mxPoint x="593" y="270" />
            </Array>
          </mxGeometry>
        </mxCell>
        <mxCell id="AlxX1pEJ-k5DPn2Wh6GJ-1" value="&lt;font style=&quot;font-size: 14px;&quot;&gt;nav&lt;/font&gt;&lt;div style=&quot;font-size: 14px;&quot;&gt;&lt;font style=&quot;font-size: 14px;&quot;&gt;sidebar&lt;/font&gt;&lt;/div&gt;&lt;div style=&quot;font-size: 14px;&quot;&gt;&lt;font style=&quot;font-size: 14px;&quot;&gt;preview&lt;/font&gt;&lt;/div&gt;" style="rounded=1;whiteSpace=wrap;html=1;fillColor=#dae8fc;strokeColor=#6c8ebf;strokeWidth=2;" vertex="1" parent="WIyWlLk6GJQsqaUBKTNV-1">
          <mxGeometry x="630" y="195" width="170" height="120" as="geometry" />
        </mxCell>
        <mxCell id="AlxX1pEJ-k5DPn2Wh6GJ-24" style="edgeStyle=orthogonalEdgeStyle;rounded=0;orthogonalLoop=1;jettySize=auto;html=1;exitX=0;exitY=0.5;exitDx=0;exitDy=0;entryX=1;entryY=0.75;entryDx=0;entryDy=0;dashed=1;" edge="1" parent="WIyWlLk6GJQsqaUBKTNV-1" source="AlxX1pEJ-k5DPn2Wh6GJ-2" target="AlxX1pEJ-k5DPn2Wh6GJ-0">
          <mxGeometry relative="1" as="geometry" />
        </mxCell>
        <mxCell id="AlxX1pEJ-k5DPn2Wh6GJ-2" value="&lt;font style=&quot;font-size: 15px;&quot;&gt;page&lt;/font&gt;&lt;div&gt;&lt;font style=&quot;font-size: 15px;&quot;&gt;sidebar&lt;/font&gt;&lt;/div&gt;" style="rounded=1;whiteSpace=wrap;html=1;fillColor=#f8cecc;strokeColor=#b85450;strokeWidth=2;fontStyle=0" vertex="1" parent="WIyWlLk6GJQsqaUBKTNV-1">
          <mxGeometry x="640" y="430" width="160" height="130" as="geometry" />
        </mxCell>
        <mxCell id="AlxX1pEJ-k5DPn2Wh6GJ-5" value="plugin1" style="text;html=1;align=center;verticalAlign=middle;resizable=0;points=[];autosize=1;strokeColor=none;fillColor=none;strokeWidth=3;fontSize=18;" vertex="1" parent="WIyWlLk6GJQsqaUBKTNV-1">
          <mxGeometry x="670" y="155" width="80" height="40" as="geometry" />
        </mxCell>
        <mxCell id="AlxX1pEJ-k5DPn2Wh6GJ-6" value="plugin2" style="text;html=1;align=center;verticalAlign=middle;resizable=0;points=[];autosize=1;strokeColor=none;fillColor=none;strokeWidth=3;fontSize=18;" vertex="1" parent="WIyWlLk6GJQsqaUBKTNV-1">
          <mxGeometry x="680" y="380" width="80" height="40" as="geometry" />
        </mxCell>
        <mxCell id="AlxX1pEJ-k5DPn2Wh6GJ-7" value="" style="rounded=0;whiteSpace=wrap;html=1;" vertex="1" parent="WIyWlLk6GJQsqaUBKTNV-1">
          <mxGeometry x="70" y="240" width="450" height="50" as="geometry" />
        </mxCell>
        <mxCell id="AlxX1pEJ-k5DPn2Wh6GJ-8" value="" style="whiteSpace=wrap;html=1;aspect=fixed;" vertex="1" parent="WIyWlLk6GJQsqaUBKTNV-1">
          <mxGeometry x="80" y="300" width="280" height="280" as="geometry" />
        </mxCell>
        <mxCell id="AlxX1pEJ-k5DPn2Wh6GJ-9" value="" style="rounded=0;whiteSpace=wrap;html=1;" vertex="1" parent="WIyWlLk6GJQsqaUBKTNV-1">
          <mxGeometry x="395" y="300" width="120" height="280" as="geometry" />
        </mxCell>
        <mxCell id="AlxX1pEJ-k5DPn2Wh6GJ-11" value="" style="rounded=0;whiteSpace=wrap;html=1;strokeColor=#6c8ebf;fillColor=#dae8fc;" vertex="1" parent="WIyWlLk6GJQsqaUBKTNV-1">
          <mxGeometry x="410" y="315" width="90" height="40" as="geometry" />
        </mxCell>
        <mxCell id="AlxX1pEJ-k5DPn2Wh6GJ-12" value="" style="rounded=0;whiteSpace=wrap;html=1;strokeColor=#b85450;fillColor=#f8cecc;" vertex="1" parent="WIyWlLk6GJQsqaUBKTNV-1">
          <mxGeometry x="410" y="380" width="90" height="40" as="geometry" />
        </mxCell>
        <mxCell id="AlxX1pEJ-k5DPn2Wh6GJ-13" value="" style="rounded=0;whiteSpace=wrap;html=1;fillColor=#dae8fc;strokeColor=#6c8ebf;" vertex="1" parent="WIyWlLk6GJQsqaUBKTNV-1">
          <mxGeometry x="400" y="255" width="46" height="20" as="geometry" />
        </mxCell>
        <mxCell id="AlxX1pEJ-k5DPn2Wh6GJ-14" value="" style="rounded=0;whiteSpace=wrap;html=1;fillColor=#dae8fc;strokeColor=#6c8ebf;" vertex="1" parent="WIyWlLk6GJQsqaUBKTNV-1">
          <mxGeometry x="460" y="255" width="46" height="20" as="geometry" />
        </mxCell>
        <mxCell id="AlxX1pEJ-k5DPn2Wh6GJ-15" value="" style="rounded=0;whiteSpace=wrap;html=1;fillColor=#dae8fc;strokeColor=#6c8ebf;" vertex="1" parent="WIyWlLk6GJQsqaUBKTNV-1">
          <mxGeometry x="100" y="330" width="240" height="190" as="geometry" />
        </mxCell>
        <mxCell id="AlxX1pEJ-k5DPn2Wh6GJ-17" value="Pubhub ui core" style="text;html=1;align=center;verticalAlign=middle;resizable=0;points=[];autosize=1;strokeColor=none;fillColor=none;fontSize=20;" vertex="1" parent="WIyWlLk6GJQsqaUBKTNV-1">
          <mxGeometry x="190" y="123" width="160" height="40" as="geometry" />
        </mxCell>
        <mxCell id="AlxX1pEJ-k5DPn2Wh6GJ-20" value="/detail" style="text;html=1;align=center;verticalAlign=middle;whiteSpace=wrap;rounded=0;fontSize=15;" vertex="1" parent="WIyWlLk6GJQsqaUBKTNV-1">
          <mxGeometry x="250" y="195" width="60" height="30" as="geometry" />
        </mxCell>
        <mxCell id="AlxX1pEJ-k5DPn2Wh6GJ-28" value="/create" style="text;html=1;align=center;verticalAlign=middle;whiteSpace=wrap;rounded=0;fillColor=#f8cecc;strokeColor=#b85450;fontSize=15;" vertex="1" parent="WIyWlLk6GJQsqaUBKTNV-1">
          <mxGeometry x="350" y="195" width="60" height="30" as="geometry" />
        </mxCell>
      </root>
    </mxGraphModel>
  </diagram>
</mxfile>
